<svg width="33" height="37" viewBox="0 0 33 37" fill="none" xmlns="http://www.w3.org/2000/svg">
<path fill-rule="evenodd" clip-rule="evenodd" d="M32.0012 25.9858C32.0012 26.7295 32.0012 27.1014 31.8244 27.4076C31.6476 27.7138 31.3255 27.8998 30.6815 28.2716L17.3203 35.9857C16.6762 36.3576 16.3542 36.5435 16.0006 36.5435C15.647 36.5435 15.325 36.3576 14.6809 35.9857L1.31971 28.2716C0.675645 27.8998 0.353614 27.7138 0.176807 27.4076C0 27.1014 0 26.7295 0 25.9858V10.5577C0 9.81396 0 9.44211 0.176807 9.13587C0.353614 8.82963 0.675645 8.64371 1.31971 8.27186L14.6809 0.557773C15.325 0.185924 15.647 0 16.0006 0C16.3542 -1.57321e-08 16.6762 0.185925 17.3203 0.557774L30.6815 8.27186C31.3255 8.64371 31.6476 8.82963 31.8244 9.13587C32.0012 9.44211 32.0012 9.81396 32.0012 10.5577V25.9858ZM22.6152 8.39457C22.6152 7.62477 22.6152 7.23987 22.8652 7.09553C23.1152 6.9512 23.4485 7.14365 24.1152 7.52855L28.8618 10.269C29.1058 10.4099 29.2278 10.4803 29.2948 10.5963C29.3618 10.7124 29.3618 10.8532 29.3618 11.135L29.3618 19.952C29.3618 20.4234 29.3618 20.6591 29.2153 20.8056C29.0689 20.952 28.8332 20.952 28.3618 20.952H23.6152C23.1438 20.952 22.9081 20.952 22.7617 20.8056C22.6152 20.6591 22.6152 20.4234 22.6152 19.952V8.39457ZM18.9758 20.952C19.4472 20.952 19.6829 20.952 19.8293 20.8056C19.9758 20.6591 19.9758 20.4234 19.9758 19.952V5.71601C19.9758 5.43424 19.9758 5.29336 19.9088 5.17733C19.8418 5.06131 19.7198 4.99086 19.4758 4.84998L16.5006 3.13225C16.2566 2.99136 16.1346 2.92092 16.0006 2.92092C15.8666 2.92092 15.7446 2.99136 15.5006 3.13225L12.4095 4.91688C12.1655 5.05777 12.0435 5.12821 11.9765 5.24423C11.9095 5.36026 11.9095 5.50114 11.9095 5.78291V19.952C11.9095 20.4234 11.9095 20.6591 12.056 20.8056C12.2024 20.952 12.4381 20.952 12.9095 20.952H18.9758ZM9.2701 19.952C9.2701 20.4234 9.2701 20.6591 9.12366 20.8056C8.97721 20.952 8.74151 20.952 8.2701 20.952H3.63941C3.16801 20.952 2.93231 20.952 2.78586 20.8056C2.63941 20.6591 2.63941 20.4234 2.63941 19.952V11.135C2.63941 10.8532 2.63941 10.7124 2.7064 10.5963C2.77339 10.4803 2.8954 10.4099 3.13941 10.269L7.7701 7.59545C8.43677 7.21055 8.7701 7.0181 9.0201 7.16244C9.2701 7.30678 9.2701 7.69168 9.2701 8.46148V19.952Z" fill="#38BDF8"/>
</svg>
