<svg width="40" height="40" viewBox="0 0 40 40" fill="none" xmlns="http://www.w3.org/2000/svg">
<path fill-rule="evenodd" clip-rule="evenodd" d="M36.0012 27.9858C36.0012 28.7295 36.0012 29.1014 35.8244 29.4076C35.6476 29.7138 35.3255 29.8998 34.6815 30.2716L21.3203 37.9857C20.6762 38.3576 20.3542 38.5435 20.0006 38.5435C19.647 38.5435 19.325 38.3576 18.6809 37.9857L5.31971 30.2716C4.67564 29.8998 4.35361 29.7138 4.17681 29.4076C4 29.1014 4 28.7295 4 27.9858V12.5577C4 11.814 4 11.4421 4.17681 11.1359C4.35361 10.8296 4.67565 10.6437 5.31971 10.2719L18.6809 2.55777C19.325 2.18592 19.647 2 20.0006 2C20.3542 2 20.6762 2.18592 21.3203 2.55777L34.6815 10.2719C35.3255 10.6437 35.6476 10.8296 35.8244 11.1359C36.0012 11.4421 36.0012 11.814 36.0012 12.5577V27.9858ZM26.6152 10.3946C26.6152 9.62477 26.6152 9.23987 26.8652 9.09553C27.1152 8.9512 27.4485 9.14365 28.1152 9.52855L32.8618 12.269C33.1058 12.4099 33.2278 12.4803 33.2948 12.5963C33.3618 12.7124 33.3618 12.8532 33.3618 13.135L33.3618 21.952C33.3618 22.4234 33.3618 22.6591 33.2153 22.8056C33.0689 22.952 32.8332 22.952 32.3618 22.952H27.6152C27.1438 22.952 26.9081 22.952 26.7617 22.8056C26.6152 22.6591 26.6152 22.4234 26.6152 21.952V10.3946ZM22.9758 22.952C23.4472 22.952 23.6829 22.952 23.8293 22.8056C23.9758 22.6591 23.9758 22.4234 23.9758 21.952V7.71601C23.9758 7.43424 23.9758 7.29336 23.9088 7.17733C23.8418 7.06131 23.7198 6.99086 23.4758 6.84998L20.5006 5.13225C20.2566 4.99136 20.1346 4.92092 20.0006 4.92092C19.8666 4.92092 19.7446 4.99136 19.5006 5.13225L16.4095 6.91688C16.1655 7.05777 16.0435 7.12821 15.9765 7.24423C15.9095 7.36026 15.9095 7.50114 15.9095 7.78291V21.952C15.9095 22.4234 15.9095 22.6591 16.056 22.8056C16.2024 22.952 16.4381 22.952 16.9095 22.952H22.9758ZM13.2701 21.952C13.2701 22.4234 13.2701 22.6591 13.1237 22.8056C12.9772 22.952 12.7415 22.952 12.2701 22.952H7.63941C7.16801 22.952 6.93231 22.952 6.78586 22.8056C6.63941 22.6591 6.63941 22.4234 6.63941 21.952V13.135C6.63941 12.8532 6.63941 12.7124 6.7064 12.5963C6.77339 12.4803 6.8954 12.4099 7.13941 12.269L11.7701 9.59545C12.4368 9.21055 12.7701 9.0181 13.0201 9.16244C13.2701 9.30678 13.2701 9.69168 13.2701 10.4615V21.952Z" fill="#38BDF8"/>
</svg>
