<svg width="117" height="26" viewBox="0 0 117 26" fill="none" xmlns="http://www.w3.org/2000/svg">
<path fill-rule="evenodd" clip-rule="evenodd" d="M22.0012 17.8656C22.0012 18.3769 22.0012 18.6325 21.8796 18.8431C21.7581 19.0536 21.5367 19.1814 21.0939 19.4371L11.9079 24.7406C11.4651 24.9962 11.2437 25.1241 11.0006 25.1241C10.7575 25.1241 10.5361 24.9962 10.0933 24.7406L0.907313 19.4371C0.464514 19.1814 0.243114 19.0536 0.121557 18.8431C0 18.6325 0 18.3769 0 17.8656V7.25851C0 6.74721 0 6.49156 0.121557 6.28102C0.243114 6.07047 0.464514 5.94265 0.907314 5.687L10.0933 0.383476C10.5361 0.127825 10.7575 0 11.0006 0C11.2437 -1.0816e-08 11.4651 0.127825 11.9079 0.383476L21.0939 5.687C21.5367 5.94265 21.7581 6.07047 21.8796 6.28102C22.0012 6.49156 22.0012 6.74721 22.0012 7.25851V17.8656ZM15.5482 6.31261C15.5482 5.54281 15.5482 5.15791 15.7982 5.01357C16.0482 4.86924 16.3816 5.06169 17.0482 5.44659L19.6866 6.96984C19.9306 7.11072 20.0526 7.18116 20.1196 7.29719C20.1866 7.41321 20.1866 7.5541 20.1866 7.83586V13.4048C20.1866 13.8762 20.1866 14.1119 20.0401 14.2583C19.8937 14.4048 19.658 14.4048 19.1866 14.4048H16.5482C16.0768 14.4048 15.8411 14.4048 15.6947 14.2583C15.5482 14.1119 15.5482 13.8762 15.5482 13.4048V6.31261ZM12.7336 14.4048C13.205 14.4048 13.4407 14.4048 13.5871 14.2583C13.7336 14.1119 13.7336 13.8762 13.7336 13.4048V4.11024C13.7336 3.82847 13.7336 3.68759 13.6666 3.57156C13.5996 3.45554 13.4776 3.38509 13.2336 3.24421L11.5006 2.24366C11.2566 2.10278 11.1346 2.03234 11.0006 2.03234C10.8666 2.03234 10.7446 2.10278 10.5006 2.24366L8.68793 3.29021C8.44392 3.43109 8.32191 3.50153 8.25492 3.61756C8.18793 3.73358 8.18793 3.87447 8.18793 4.15623V13.4048C8.18793 13.8762 8.18793 14.1119 8.33438 14.2583C8.48083 14.4048 8.71653 14.4048 9.18793 14.4048H12.7336ZM6.3733 13.4048C6.3733 13.8762 6.3733 14.1119 6.22686 14.2583C6.08041 14.4048 5.84471 14.4048 5.3733 14.4048H2.81463C2.34322 14.4048 2.10752 14.4048 1.96107 14.2583C1.81463 14.1119 1.81463 13.8762 1.81463 13.4048V7.83586C1.81463 7.5541 1.81463 7.41321 1.88162 7.29719C1.9486 7.18116 2.07061 7.11072 2.31463 6.96984L4.8733 5.49258C5.53997 5.10768 5.8733 4.91523 6.1233 5.05957C6.3733 5.20391 6.3733 5.58881 6.3733 6.35861V13.4048Z" fill="#38BDF8"/>
<path d="M33.4592 7.56201V17.012L32.3812 15.962H40.2632V18.062H31.0792V7.56201H33.4592ZM45.6601 18.272C44.6708 18.272 43.8028 18.0993 43.0561 17.754C42.3094 17.3993 41.7261 16.9093 41.3061 16.284C40.8861 15.6493 40.6761 14.9167 40.6761 14.086C40.6761 13.246 40.8861 12.5133 41.3061 11.888C41.7261 11.2533 42.3094 10.7633 43.0561 10.418C43.8028 10.0633 44.6708 9.88601 45.6601 9.88601C46.6494 9.88601 47.5174 10.0633 48.2641 10.418C49.0108 10.7633 49.5894 11.2533 50.0001 11.888C50.4201 12.5133 50.6301 13.246 50.6301 14.086C50.6301 14.9167 50.4201 15.6493 50.0001 16.284C49.5894 16.9093 49.0108 17.3993 48.2641 17.754C47.5174 18.0993 46.6494 18.272 45.6601 18.272ZM45.6601 16.494C46.2014 16.494 46.6634 16.396 47.0461 16.2C47.4381 16.004 47.7368 15.7287 47.9421 15.374C48.1568 15.01 48.2641 14.5807 48.2641 14.086C48.2641 13.582 48.1568 13.1527 47.9421 12.798C47.7368 12.434 47.4381 12.154 47.0461 11.958C46.6634 11.762 46.2014 11.664 45.6601 11.664C45.1281 11.664 44.6661 11.762 44.2741 11.958C43.8821 12.154 43.5788 12.434 43.3641 12.798C43.1588 13.1527 43.0561 13.582 43.0561 14.086C43.0561 14.5807 43.1588 15.01 43.3641 15.374C43.5788 15.7287 43.8821 16.004 44.2741 16.2C44.6661 16.396 45.1281 16.494 45.6601 16.494ZM56.5566 18.272C55.5673 18.272 54.6993 18.0993 53.9526 17.754C53.2059 17.3993 52.6226 16.9093 52.2026 16.284C51.7826 15.6493 51.5726 14.9167 51.5726 14.086C51.5726 13.246 51.7826 12.5133 52.2026 11.888C52.6226 11.2533 53.2059 10.7633 53.9526 10.418C54.6993 10.0633 55.5673 9.88601 56.5566 9.88601C57.5459 9.88601 58.4139 10.0633 59.1606 10.418C59.9073 10.7633 60.4859 11.2533 60.8966 11.888C61.3166 12.5133 61.5266 13.246 61.5266 14.086C61.5266 14.9167 61.3166 15.6493 60.8966 16.284C60.4859 16.9093 59.9073 17.3993 59.1606 17.754C58.4139 18.0993 57.5459 18.272 56.5566 18.272ZM56.5566 16.494C57.0979 16.494 57.5599 16.396 57.9426 16.2C58.3346 16.004 58.6333 15.7287 58.8386 15.374C59.0533 15.01 59.1606 14.5807 59.1606 14.086C59.1606 13.582 59.0533 13.1527 58.8386 12.798C58.6333 12.434 58.3346 12.154 57.9426 11.958C57.5599 11.762 57.0979 11.664 56.5566 11.664C56.0246 11.664 55.5626 11.762 55.1706 11.958C54.7786 12.154 54.4753 12.434 54.2606 12.798C54.0553 13.1527 53.9526 13.582 53.9526 14.086C53.9526 14.5807 54.0553 15.01 54.2606 15.374C54.4753 15.7287 54.7786 16.004 55.1706 16.2C55.5626 16.396 56.0246 16.494 56.5566 16.494ZM62.8891 10.096H65.2271V12.63L65.1291 12.938V14.856L65.2271 15.43V20.372H62.8891V10.096ZM64.4151 14.086C64.5737 13.2367 64.8491 12.4993 65.2411 11.874C65.6424 11.2393 66.1417 10.7493 66.7391 10.404C67.3457 10.0587 68.0177 9.88601 68.7551 9.88601C69.5391 9.88601 70.2251 10.0633 70.8131 10.418C71.4104 10.7633 71.8771 11.2533 72.2131 11.888C72.5491 12.5133 72.7171 13.246 72.7171 14.086C72.7171 14.9167 72.5491 15.6493 72.2131 16.284C71.8771 16.9093 71.4104 17.3993 70.8131 17.754C70.2251 18.0993 69.5391 18.272 68.7551 18.272C68.0084 18.272 67.3364 18.0993 66.7391 17.754C66.1511 17.4087 65.6564 16.9233 65.2551 16.298C64.8537 15.6633 64.5737 14.926 64.4151 14.086ZM70.3511 14.086C70.3511 13.6193 70.2531 13.2087 70.0571 12.854C69.8704 12.49 69.6091 12.21 69.2731 12.014C68.9371 11.8087 68.5497 11.706 68.1111 11.706C67.6724 11.706 67.2571 11.8087 66.8651 12.014C66.4731 12.21 66.1277 12.49 65.8291 12.854C65.5397 13.2087 65.3111 13.6193 65.1431 14.086C65.3111 14.5527 65.5397 14.9633 65.8291 15.318C66.1277 15.6727 66.4731 15.9527 66.8651 16.158C67.2571 16.354 67.6724 16.452 68.1111 16.452C68.5497 16.452 68.9371 16.354 69.2731 16.158C69.6091 15.9527 69.8704 15.6727 70.0571 15.318C70.2531 14.9633 70.3511 14.5527 70.3511 14.086ZM84.881 13.512C84.8717 14.1467 84.7457 14.7533 84.503 15.332C84.2697 15.9013 83.9337 16.41 83.495 16.858C83.0563 17.2967 82.515 17.642 81.871 17.894C81.227 18.146 80.4803 18.272 79.631 18.272C78.8097 18.272 78.0397 18.1507 77.321 17.908C76.6117 17.656 75.9863 17.2967 75.445 16.83C74.913 16.3633 74.4977 15.794 74.199 15.122C73.9003 14.4407 73.751 13.6707 73.751 12.812C73.751 11.9533 73.9003 11.188 74.199 10.516C74.507 9.83468 74.9317 9.26068 75.473 8.79401C76.0143 8.32734 76.649 7.97268 77.377 7.73001C78.105 7.47801 78.8983 7.35201 79.757 7.35201C80.877 7.35201 81.8477 7.52934 82.669 7.88401C83.4903 8.22934 84.153 8.71001 84.657 9.32601C85.1703 9.94201 85.4877 10.6467 85.609 11.44H83.215C83.1217 11.0107 82.9163 10.642 82.599 10.334C82.291 10.026 81.8943 9.78801 81.409 9.62001C80.933 9.45201 80.3823 9.36801 79.757 9.36801C79.0197 9.36801 78.3803 9.50334 77.839 9.77401C77.307 10.0353 76.8917 10.4227 76.593 10.936C76.3037 11.4493 76.159 12.0747 76.159 12.812C76.159 13.5493 76.313 14.1793 76.621 14.702C76.929 15.2247 77.3677 15.626 77.937 15.906C78.5063 16.1767 79.1783 16.312 79.953 16.312C80.709 16.312 81.3717 16.1953 81.941 15.962C82.5103 15.7193 82.9583 15.3833 83.285 14.954C83.621 14.5153 83.8123 13.9973 83.859 13.4L84.881 13.512ZM80.275 14.478V12.756H85.721V18.062H84.013L83.691 13.806L84.181 14.478H80.275ZM94.6968 18.062L94.3608 15.15L94.7388 14.086L94.3608 13.036L94.6968 10.096H97.1188L96.6568 14.086L97.1188 18.062H94.6968ZM95.3128 14.086C95.1634 14.926 94.8881 15.6633 94.4868 16.298C94.0948 16.9233 93.5954 17.4087 92.9888 17.754C92.3914 18.0993 91.7194 18.272 90.9728 18.272C90.1981 18.272 89.5121 18.0993 88.9148 17.754C88.3174 17.3993 87.8508 16.9093 87.5148 16.284C87.1881 15.6493 87.0248 14.9167 87.0248 14.086C87.0248 13.246 87.1881 12.5133 87.5148 11.888C87.8508 11.2533 88.3174 10.7633 88.9148 10.418C89.5121 10.0633 90.1981 9.88601 90.9728 9.88601C91.7194 9.88601 92.3914 10.0587 92.9888 10.404C93.5954 10.7493 94.0994 11.2393 94.5008 11.874C94.9021 12.4993 95.1728 13.2367 95.3128 14.086ZM89.3908 14.086C89.3908 14.5527 89.4841 14.9633 89.6708 15.318C89.8668 15.6727 90.1328 15.9527 90.4688 16.158C90.8048 16.354 91.1921 16.452 91.6308 16.452C92.0694 16.452 92.4801 16.354 92.8628 16.158C93.2548 15.9527 93.6001 15.6727 93.8988 15.318C94.1974 14.9633 94.4308 14.5527 94.5988 14.086C94.4308 13.6193 94.1974 13.2087 93.8988 12.854C93.6001 12.49 93.2548 12.21 92.8628 12.014C92.4801 11.8087 92.0694 11.706 91.6308 11.706C91.1921 11.706 90.8048 11.8087 90.4688 12.014C90.1328 12.21 89.8668 12.49 89.6708 12.854C89.4841 13.2087 89.3908 13.6193 89.3908 14.086ZM97.87 11.86V10.824L99.536 10.278L100.53 7.99601H101.874V10.096H105.402V11.86H101.874V14.758C101.874 15.374 102 15.808 102.252 16.06C102.513 16.3027 102.961 16.424 103.596 16.424C103.997 16.424 104.352 16.3867 104.66 16.312C104.968 16.2373 105.262 16.13 105.542 15.99V17.81C105.271 17.922 104.912 18.0247 104.464 18.118C104.016 18.2207 103.554 18.272 103.078 18.272C102.247 18.272 101.571 18.1413 101.048 17.88C100.535 17.6093 100.152 17.236 99.9 16.76C99.6574 16.284 99.536 15.7287 99.536 15.094V11.86H97.87ZM111.024 18.272C110.081 18.272 109.236 18.0993 108.49 17.754C107.752 17.3993 107.169 16.9047 106.74 16.27C106.32 15.6353 106.11 14.898 106.11 14.058C106.11 13.2273 106.31 12.4993 106.712 11.874C107.122 11.2487 107.682 10.7633 108.392 10.418C109.101 10.0633 109.908 9.88601 110.814 9.88601C111.738 9.88601 112.531 10.0913 113.194 10.502C113.856 10.9033 114.365 11.4727 114.72 12.21C115.084 12.9473 115.266 13.8153 115.266 14.814H107.986V13.26H114.006L113.096 13.82C113.058 13.3533 112.942 12.9567 112.746 12.63C112.559 12.3033 112.302 12.0513 111.976 11.874C111.649 11.6967 111.266 11.608 110.828 11.608C110.352 11.608 109.936 11.706 109.582 11.902C109.236 12.0887 108.966 12.3547 108.77 12.7C108.583 13.036 108.49 13.4327 108.49 13.89C108.49 14.4407 108.611 14.912 108.854 15.304C109.096 15.696 109.451 15.9947 109.918 16.2C110.384 16.4053 110.949 16.508 111.612 16.508C112.209 16.508 112.811 16.424 113.418 16.256C114.024 16.0787 114.57 15.8313 115.056 15.514V17.082C114.533 17.4553 113.922 17.7493 113.222 17.964C112.531 18.1693 111.798 18.272 111.024 18.272Z" fill="white"/>
</svg>
