<svg width="109" height="26" viewBox="0 0 109 26" fill="none" xmlns="http://www.w3.org/2000/svg">
<path fill-rule="evenodd" clip-rule="evenodd" d="M22.0012 17.9896C22.0012 18.5009 22.0012 18.7565 21.8796 18.9671C21.7581 19.1776 21.5367 19.3054 21.0939 19.5611L11.9079 24.8646C11.4651 25.1203 11.2437 25.2481 11.0006 25.2481C10.7575 25.2481 10.5361 25.1203 10.0933 24.8646L0.907313 19.5611C0.464514 19.3054 0.243114 19.1776 0.121557 18.9671C0 18.7565 0 18.5009 0 17.9896V7.38254C0 6.87123 0 6.61558 0.121557 6.40504C0.243114 6.1945 0.464514 6.06667 0.907314 5.81102L10.0933 0.507499C10.5361 0.251849 10.7575 0.124023 11.0006 0.124023C11.2437 0.124023 11.4651 0.251849 11.9079 0.507499L21.0939 5.81102C21.5367 6.06667 21.7581 6.1945 21.8796 6.40504C22.0012 6.61558 22.0012 6.87123 22.0012 7.38254V17.9896ZM15.5482 6.43663C15.5482 5.66683 15.5482 5.28194 15.7982 5.1376C16.0482 4.99326 16.3816 5.18571 17.0482 5.57061L19.6866 7.09386C19.9306 7.23474 20.0526 7.30519 20.1196 7.42121C20.1866 7.53724 20.1866 7.67812 20.1866 7.95989L20.1866 13.5288C20.1866 14.0002 20.1866 14.2359 20.0401 14.3823C19.8937 14.5288 19.658 14.5288 19.1866 14.5288H16.5482C16.0768 14.5288 15.8411 14.5288 15.6947 14.3823C15.5482 14.2359 15.5482 14.0002 15.5482 13.5288V6.43663ZM12.7336 14.5288C13.205 14.5288 13.4407 14.5288 13.5871 14.3823C13.7336 14.2359 13.7336 14.0002 13.7336 13.5288V4.23426C13.7336 3.95249 13.7336 3.81161 13.6666 3.69558C13.5996 3.57956 13.4776 3.50912 13.2336 3.36823L11.5006 2.36769C11.2566 2.22681 11.1346 2.15636 11.0006 2.15636C10.8666 2.15636 10.7446 2.2268 10.5006 2.36769L8.68793 3.41423C8.44392 3.55511 8.32191 3.62556 8.25492 3.74158C8.18793 3.85761 8.18793 3.99849 8.18793 4.28026V13.5288C8.18793 14.0002 8.18793 14.2359 8.33438 14.3823C8.48083 14.5288 8.71653 14.5288 9.18793 14.5288H12.7336ZM6.3733 13.5288C6.3733 14.0002 6.3733 14.2359 6.22686 14.3823C6.08041 14.5288 5.84471 14.5288 5.3733 14.5288H2.81463C2.34322 14.5288 2.10752 14.5288 1.96107 14.3823C1.81463 14.2359 1.81463 14.0002 1.81463 13.5288V7.95989C1.81463 7.67812 1.81463 7.53724 1.88162 7.42121C1.9486 7.30519 2.07061 7.23474 2.31463 7.09386L4.8733 5.61661C5.53997 5.23171 5.8733 5.03926 6.1233 5.18359C6.3733 5.32793 6.3733 5.71283 6.3733 6.48263V13.5288Z" fill="white"/>
<path d="M30.8832 7.40603H33.2212V18.186H30.8832V7.40603ZM39.5488 18.396C38.5595 18.396 37.6915 18.2234 36.9448 17.878C36.1981 17.5234 35.6148 17.0334 35.1948 16.408C34.7748 15.7734 34.5648 15.0407 34.5648 14.21C34.5648 13.37 34.7748 12.6374 35.1948 12.012C35.6148 11.3774 36.1981 10.8874 36.9448 10.542C37.6915 10.1874 38.5595 10.01 39.5488 10.01C40.5381 10.01 41.4061 10.1874 42.1528 10.542C42.8995 10.8874 43.4781 11.3774 43.8888 12.012C44.3088 12.6374 44.5188 13.37 44.5188 14.21C44.5188 15.0407 44.3088 15.7734 43.8888 16.408C43.4781 17.0334 42.8995 17.5234 42.1528 17.878C41.4061 18.2234 40.5381 18.396 39.5488 18.396ZM39.5488 16.618C40.0901 16.618 40.5521 16.52 40.9348 16.324C41.3268 16.128 41.6255 15.8527 41.8308 15.498C42.0455 15.134 42.1528 14.7047 42.1528 14.21C42.1528 13.706 42.0455 13.2767 41.8308 12.922C41.6255 12.558 41.3268 12.278 40.9348 12.082C40.5521 11.886 40.0901 11.788 39.5488 11.788C39.0168 11.788 38.5548 11.886 38.1628 12.082C37.7708 12.278 37.4675 12.558 37.2528 12.922C37.0474 13.2767 36.9448 13.706 36.9448 14.21C36.9448 14.7047 37.0474 15.134 37.2528 15.498C37.4675 15.8527 37.7708 16.128 38.1628 16.324C38.5548 16.52 39.0168 16.618 39.5488 16.618ZM50.4453 18.396C49.4559 18.396 48.5879 18.2234 47.8413 17.878C47.0946 17.5234 46.5113 17.0334 46.0913 16.408C45.6713 15.7734 45.4613 15.0407 45.4613 14.21C45.4613 13.37 45.6713 12.6374 46.0913 12.012C46.5113 11.3774 47.0946 10.8874 47.8413 10.542C48.5879 10.1874 49.4559 10.01 50.4453 10.01C51.4346 10.01 52.3026 10.1874 53.0493 10.542C53.7959 10.8874 54.3746 11.3774 54.7853 12.012C55.2053 12.6374 55.4153 13.37 55.4153 14.21C55.4153 15.0407 55.2053 15.7734 54.7853 16.408C54.3746 17.0334 53.7959 17.5234 53.0493 17.878C52.3026 18.2234 51.4346 18.396 50.4453 18.396ZM50.4453 16.618C50.9866 16.618 51.4486 16.52 51.8313 16.324C52.2233 16.128 52.5219 15.8527 52.7273 15.498C52.9419 15.134 53.0493 14.7047 53.0493 14.21C53.0493 13.706 52.9419 13.2767 52.7273 12.922C52.5219 12.558 52.2233 12.278 51.8313 12.082C51.4486 11.886 50.9866 11.788 50.4453 11.788C49.9133 11.788 49.4513 11.886 49.0593 12.082C48.6673 12.278 48.3639 12.558 48.1493 12.922C47.9439 13.2767 47.8413 13.706 47.8413 14.21C47.8413 14.7047 47.9439 15.134 48.1493 15.498C48.3639 15.8527 48.6673 16.128 49.0593 16.324C49.4513 16.52 49.9133 16.618 50.4453 16.618ZM56.7778 10.22H59.1158V12.754L59.0178 13.062V14.98L59.1158 15.554V20.496H56.7778V10.22ZM58.3038 14.21C58.4624 13.3607 58.7378 12.6234 59.1298 11.998C59.5311 11.3634 60.0304 10.8734 60.6278 10.528C61.2344 10.1827 61.9064 10.01 62.6438 10.01C63.4278 10.01 64.1138 10.1874 64.7018 10.542C65.2991 10.8874 65.7658 11.3774 66.1018 12.012C66.4378 12.6374 66.6058 13.37 66.6058 14.21C66.6058 15.0407 66.4378 15.7734 66.1018 16.408C65.7658 17.0334 65.2991 17.5234 64.7018 17.878C64.1138 18.2234 63.4278 18.396 62.6438 18.396C61.8971 18.396 61.2251 18.2234 60.6278 17.878C60.0398 17.5327 59.5451 17.0474 59.1438 16.422C58.7424 15.7874 58.4624 15.05 58.3038 14.21ZM64.2398 14.21C64.2398 13.7434 64.1418 13.3327 63.9458 12.978C63.7591 12.614 63.4978 12.334 63.1618 12.138C62.8258 11.9327 62.4384 11.83 61.9998 11.83C61.5611 11.83 61.1458 11.9327 60.7538 12.138C60.3618 12.334 60.0164 12.614 59.7178 12.978C59.4284 13.3327 59.1998 13.7434 59.0318 14.21C59.1998 14.6767 59.4284 15.0874 59.7178 15.442C60.0164 15.7967 60.3618 16.0767 60.7538 16.282C61.1458 16.478 61.5611 16.576 61.9998 16.576C62.4384 16.576 62.8258 16.478 63.1618 16.282C63.4978 16.0767 63.7591 15.7967 63.9458 15.442C64.1418 15.0874 64.2398 14.6767 64.2398 14.21ZM75.059 16.212V14.826L75.143 14.532V12.796L75.059 12.502V10.22H77.397V16.058C77.397 17.066 77.173 17.9154 76.725 18.606C76.2864 19.2967 75.675 19.8194 74.891 20.174C74.107 20.5287 73.197 20.706 72.161 20.706C71.433 20.706 70.761 20.6127 70.145 20.426C69.5384 20.2394 68.941 19.9547 68.353 19.572V17.738C68.9224 18.1767 69.515 18.4894 70.131 18.676C70.7564 18.8627 71.3864 18.956 72.021 18.956C73.001 18.956 73.7524 18.7274 74.275 18.27C74.7977 17.8127 75.059 17.1267 75.059 16.212ZM71.433 17.458C70.6957 17.458 70.033 17.304 69.445 16.996C68.8664 16.688 68.409 16.254 68.073 15.694C67.737 15.134 67.569 14.4807 67.569 13.734C67.569 12.9874 67.737 12.3387 68.073 11.788C68.409 11.228 68.8664 10.794 69.445 10.486C70.033 10.1687 70.6957 10.01 71.433 10.01C71.993 10.01 72.5017 10.0987 72.959 10.276C73.4257 10.444 73.841 10.668 74.205 10.948C74.5784 11.228 74.891 11.536 75.143 11.872C75.395 12.1987 75.5864 12.53 75.717 12.866C75.857 13.1927 75.927 13.4914 75.927 13.762C75.927 14.1074 75.8197 14.4947 75.605 14.924C75.3997 15.3534 75.101 15.7594 74.709 16.142C74.317 16.5247 73.8457 16.842 73.295 17.094C72.7444 17.3367 72.1237 17.458 71.433 17.458ZM72.203 15.806C72.8097 15.806 73.3557 15.6427 73.841 15.316C74.3357 14.98 74.7697 14.4527 75.143 13.734C74.7697 13.006 74.3357 12.4787 73.841 12.152C73.3464 11.816 72.8004 11.648 72.203 11.648C71.727 11.648 71.3164 11.7367 70.971 11.914C70.635 12.082 70.3737 12.3247 70.187 12.642C70.0097 12.95 69.921 13.314 69.921 13.734C69.921 14.1447 70.0097 14.5087 70.187 14.826C70.3644 15.134 70.6257 15.3767 70.971 15.554C71.3164 15.722 71.727 15.806 72.203 15.806ZM86.4116 18.186L86.0756 15.274L86.4536 14.21L86.0756 13.16L86.4116 10.22H88.8336L88.3716 14.21L88.8336 18.186H86.4116ZM87.0276 14.21C86.8783 15.05 86.6029 15.7874 86.2016 16.422C85.8096 17.0474 85.3103 17.5327 84.7036 17.878C84.1063 18.2234 83.4343 18.396 82.6876 18.396C81.9129 18.396 81.2269 18.2234 80.6296 17.878C80.0323 17.5234 79.5656 17.0334 79.2296 16.408C78.9029 15.7734 78.7396 15.0407 78.7396 14.21C78.7396 13.37 78.9029 12.6374 79.2296 12.012C79.5656 11.3774 80.0323 10.8874 80.6296 10.542C81.2269 10.1874 81.9129 10.01 82.6876 10.01C83.4343 10.01 84.1063 10.1827 84.7036 10.528C85.3103 10.8734 85.8143 11.3634 86.2156 11.998C86.6169 12.6234 86.8876 13.3607 87.0276 14.21ZM81.1056 14.21C81.1056 14.6767 81.1989 15.0874 81.3856 15.442C81.5816 15.7967 81.8476 16.0767 82.1836 16.282C82.5196 16.478 82.9069 16.576 83.3456 16.576C83.7843 16.576 84.1949 16.478 84.5776 16.282C84.9696 16.0767 85.3149 15.7967 85.6136 15.442C85.9123 15.0874 86.1456 14.6767 86.3136 14.21C86.1456 13.7434 85.9123 13.3327 85.6136 12.978C85.3149 12.614 84.9696 12.334 84.5776 12.138C84.1949 11.9327 83.7843 11.83 83.3456 11.83C82.9069 11.83 82.5196 11.9327 82.1836 12.138C81.8476 12.334 81.5816 12.614 81.3856 12.978C81.1989 13.3327 81.1056 13.7434 81.1056 14.21ZM89.5849 11.984V10.948L91.2509 10.402L92.2449 8.12003H93.5889V10.22H97.1169V11.984H93.5889V14.882C93.5889 15.498 93.7149 15.932 93.9669 16.184C94.2282 16.4267 94.6762 16.548 95.3109 16.548C95.7122 16.548 96.0669 16.5107 96.3749 16.436C96.6829 16.3614 96.9769 16.254 97.2569 16.114V17.934C96.9862 18.046 96.6269 18.1487 96.1789 18.242C95.7309 18.3447 95.2689 18.396 94.7929 18.396C93.9622 18.396 93.2856 18.2654 92.7629 18.004C92.2496 17.7334 91.8669 17.36 91.6149 16.884C91.3722 16.408 91.2509 15.8527 91.2509 15.218V11.984H89.5849ZM102.739 18.396C101.796 18.396 100.951 18.2234 100.205 17.878C99.4672 17.5234 98.8839 17.0287 98.4545 16.394C98.0345 15.7594 97.8245 15.022 97.8245 14.182C97.8245 13.3514 98.0252 12.6234 98.4265 11.998C98.8372 11.3727 99.3972 10.8874 100.107 10.542C100.816 10.1874 101.623 10.01 102.529 10.01C103.453 10.01 104.246 10.2154 104.909 10.626C105.571 11.0274 106.08 11.5967 106.435 12.334C106.799 13.0714 106.981 13.9394 106.981 14.938H99.7005V13.384H105.721L104.811 13.944C104.773 13.4774 104.657 13.0807 104.461 12.754C104.274 12.4274 104.017 12.1754 103.691 11.998C103.364 11.8207 102.981 11.732 102.543 11.732C102.067 11.732 101.651 11.83 101.297 12.026C100.951 12.2127 100.681 12.4787 100.485 12.824C100.298 13.16 100.205 13.5567 100.205 14.014C100.205 14.5647 100.326 15.036 100.569 15.428C100.811 15.82 101.166 16.1187 101.633 16.324C102.099 16.5294 102.664 16.632 103.327 16.632C103.924 16.632 104.526 16.548 105.133 16.38C105.739 16.2027 106.285 15.9554 106.771 15.638V17.206C106.248 17.5794 105.637 17.8734 104.937 18.088C104.246 18.2934 103.513 18.396 102.739 18.396Z" fill="white"/>
</svg>
