<svg width="109" height="26" viewBox="0 0 109 26" fill="none" xmlns="http://www.w3.org/2000/svg">
<path fill-rule="evenodd" clip-rule="evenodd" d="M22.0012 18.2379C22.0012 18.7492 22.0012 19.0048 21.8796 19.2154C21.7581 19.4259 21.5367 19.5537 21.0939 19.8094L11.9079 25.1129C11.4651 25.3686 11.2437 25.4964 11.0006 25.4964C10.7575 25.4964 10.5361 25.3686 10.0933 25.1129L0.907313 19.8094C0.464514 19.5537 0.243114 19.4259 0.121557 19.2154C0 19.0048 0 18.7492 0 18.2379V7.63083C0 7.11953 0 6.86387 0.121557 6.65333C0.243114 6.44279 0.464514 6.31496 0.907314 6.05931L10.0933 0.75579C10.5361 0.50014 10.7575 0.372314 11.0006 0.372314C11.2437 0.372314 11.4651 0.50014 11.9079 0.75579L21.0939 6.05931C21.5367 6.31496 21.7581 6.44279 21.8796 6.65333C22.0012 6.86387 22.0012 7.11953 22.0012 7.63083V18.2379ZM15.5482 6.68492C15.5482 5.91513 15.5482 5.53023 15.7982 5.38589C16.0482 5.24155 16.3816 5.434 17.0482 5.8189L19.6866 7.34215C19.9306 7.48304 20.0526 7.55348 20.1196 7.6695C20.1866 7.78553 20.1866 7.92641 20.1866 8.20818L20.1866 13.7771C20.1866 14.2485 20.1866 14.4842 20.0401 14.6306C19.8937 14.7771 19.658 14.7771 19.1866 14.7771H16.5482C16.0768 14.7771 15.8411 14.7771 15.6947 14.6306C15.5482 14.4842 15.5482 14.2485 15.5482 13.7771V6.68492ZM12.7336 14.7771C13.205 14.7771 13.4407 14.7771 13.5871 14.6306C13.7336 14.4842 13.7336 14.2485 13.7336 13.7771V4.48255C13.7336 4.20078 13.7336 4.0599 13.6666 3.94388C13.5996 3.82785 13.4776 3.75741 13.2336 3.61653L11.5006 2.61598C11.2566 2.4751 11.1346 2.40465 11.0006 2.40465C10.8666 2.40465 10.7446 2.4751 10.5006 2.61598L8.68793 3.66252C8.44392 3.80341 8.32191 3.87385 8.25492 3.98987C8.18793 4.1059 8.18793 4.24678 8.18793 4.52855V13.7771C8.18793 14.2485 8.18793 14.4842 8.33438 14.6306C8.48083 14.7771 8.71653 14.7771 9.18793 14.7771H12.7336ZM6.3733 13.7771C6.3733 14.2485 6.3733 14.4842 6.22686 14.6306C6.08041 14.7771 5.84471 14.7771 5.3733 14.7771H2.81463C2.34322 14.7771 2.10752 14.7771 1.96107 14.6306C1.81463 14.4842 1.81463 14.2485 1.81463 13.7771V8.20818C1.81463 7.92641 1.81463 7.78553 1.88162 7.6695C1.9486 7.55348 2.07061 7.48303 2.31463 7.34215L4.8733 5.8649C5.53997 5.48 5.8733 5.28755 6.1233 5.43189C6.3733 5.57622 6.3733 5.96112 6.3733 6.73092V13.7771Z" fill="#38BDF8"/>
<path d="M30.8832 7.65433H33.2212V18.4343H30.8832V7.65433ZM39.5488 18.6443C38.5595 18.6443 37.6915 18.4717 36.9448 18.1263C36.1981 17.7717 35.6148 17.2817 35.1948 16.6563C34.7748 16.0217 34.5648 15.289 34.5648 14.4583C34.5648 13.6183 34.7748 12.8857 35.1948 12.2603C35.6148 11.6257 36.1981 11.1357 36.9448 10.7903C37.6915 10.4357 38.5595 10.2583 39.5488 10.2583C40.5381 10.2583 41.4061 10.4357 42.1528 10.7903C42.8995 11.1357 43.4781 11.6257 43.8888 12.2603C44.3088 12.8857 44.5188 13.6183 44.5188 14.4583C44.5188 15.289 44.3088 16.0217 43.8888 16.6563C43.4781 17.2817 42.8995 17.7717 42.1528 18.1263C41.4061 18.4717 40.5381 18.6443 39.5488 18.6443ZM39.5488 16.8663C40.0901 16.8663 40.5521 16.7683 40.9348 16.5723C41.3268 16.3763 41.6255 16.101 41.8308 15.7463C42.0455 15.3823 42.1528 14.953 42.1528 14.4583C42.1528 13.9543 42.0455 13.525 41.8308 13.1703C41.6255 12.8063 41.3268 12.5263 40.9348 12.3303C40.5521 12.1343 40.0901 12.0363 39.5488 12.0363C39.0168 12.0363 38.5548 12.1343 38.1628 12.3303C37.7708 12.5263 37.4675 12.8063 37.2528 13.1703C37.0474 13.525 36.9448 13.9543 36.9448 14.4583C36.9448 14.953 37.0474 15.3823 37.2528 15.7463C37.4675 16.101 37.7708 16.3763 38.1628 16.5723C38.5548 16.7683 39.0168 16.8663 39.5488 16.8663ZM50.4453 18.6443C49.4559 18.6443 48.5879 18.4717 47.8413 18.1263C47.0946 17.7717 46.5113 17.2817 46.0913 16.6563C45.6713 16.0217 45.4613 15.289 45.4613 14.4583C45.4613 13.6183 45.6713 12.8857 46.0913 12.2603C46.5113 11.6257 47.0946 11.1357 47.8413 10.7903C48.5879 10.4357 49.4559 10.2583 50.4453 10.2583C51.4346 10.2583 52.3026 10.4357 53.0493 10.7903C53.7959 11.1357 54.3746 11.6257 54.7853 12.2603C55.2053 12.8857 55.4153 13.6183 55.4153 14.4583C55.4153 15.289 55.2053 16.0217 54.7853 16.6563C54.3746 17.2817 53.7959 17.7717 53.0493 18.1263C52.3026 18.4717 51.4346 18.6443 50.4453 18.6443ZM50.4453 16.8663C50.9866 16.8663 51.4486 16.7683 51.8313 16.5723C52.2233 16.3763 52.5219 16.101 52.7273 15.7463C52.9419 15.3823 53.0493 14.953 53.0493 14.4583C53.0493 13.9543 52.9419 13.525 52.7273 13.1703C52.5219 12.8063 52.2233 12.5263 51.8313 12.3303C51.4486 12.1343 50.9866 12.0363 50.4453 12.0363C49.9133 12.0363 49.4513 12.1343 49.0593 12.3303C48.6673 12.5263 48.3639 12.8063 48.1493 13.1703C47.9439 13.525 47.8413 13.9543 47.8413 14.4583C47.8413 14.953 47.9439 15.3823 48.1493 15.7463C48.3639 16.101 48.6673 16.3763 49.0593 16.5723C49.4513 16.7683 49.9133 16.8663 50.4453 16.8663ZM56.7778 10.4683H59.1158V13.0023L59.0178 13.3103V15.2283L59.1158 15.8023V20.7443H56.7778V10.4683ZM58.3038 14.4583C58.4624 13.609 58.7378 12.8717 59.1298 12.2463C59.5311 11.6117 60.0304 11.1217 60.6278 10.7763C61.2344 10.431 61.9064 10.2583 62.6438 10.2583C63.4278 10.2583 64.1138 10.4357 64.7018 10.7903C65.2991 11.1357 65.7658 11.6257 66.1018 12.2603C66.4378 12.8857 66.6058 13.6183 66.6058 14.4583C66.6058 15.289 66.4378 16.0217 66.1018 16.6563C65.7658 17.2817 65.2991 17.7717 64.7018 18.1263C64.1138 18.4717 63.4278 18.6443 62.6438 18.6443C61.8971 18.6443 61.2251 18.4717 60.6278 18.1263C60.0398 17.781 59.5451 17.2957 59.1438 16.6703C58.7424 16.0357 58.4624 15.2983 58.3038 14.4583ZM64.2398 14.4583C64.2398 13.9917 64.1418 13.581 63.9458 13.2263C63.7591 12.8623 63.4978 12.5823 63.1618 12.3863C62.8258 12.181 62.4384 12.0783 61.9998 12.0783C61.5611 12.0783 61.1458 12.181 60.7538 12.3863C60.3618 12.5823 60.0164 12.8623 59.7178 13.2263C59.4284 13.581 59.1998 13.9917 59.0318 14.4583C59.1998 14.925 59.4284 15.3357 59.7178 15.6903C60.0164 16.045 60.3618 16.325 60.7538 16.5303C61.1458 16.7263 61.5611 16.8243 61.9998 16.8243C62.4384 16.8243 62.8258 16.7263 63.1618 16.5303C63.4978 16.325 63.7591 16.045 63.9458 15.6903C64.1418 15.3357 64.2398 14.925 64.2398 14.4583ZM75.059 16.4603V15.0743L75.143 14.7803V13.0443L75.059 12.7503V10.4683H77.397V16.3063C77.397 17.3143 77.173 18.1637 76.725 18.8543C76.2864 19.545 75.675 20.0677 74.891 20.4223C74.107 20.777 73.197 20.9543 72.161 20.9543C71.433 20.9543 70.761 20.861 70.145 20.6743C69.5384 20.4877 68.941 20.203 68.353 19.8203V17.9863C68.9224 18.425 69.515 18.7377 70.131 18.9243C70.7564 19.111 71.3864 19.2043 72.021 19.2043C73.001 19.2043 73.7524 18.9757 74.275 18.5183C74.7977 18.061 75.059 17.375 75.059 16.4603ZM71.433 17.7063C70.6957 17.7063 70.033 17.5523 69.445 17.2443C68.8664 16.9363 68.409 16.5023 68.073 15.9423C67.737 15.3823 67.569 14.729 67.569 13.9823C67.569 13.2357 67.737 12.587 68.073 12.0363C68.409 11.4763 68.8664 11.0423 69.445 10.7343C70.033 10.417 70.6957 10.2583 71.433 10.2583C71.993 10.2583 72.5017 10.347 72.959 10.5243C73.4257 10.6923 73.841 10.9163 74.205 11.1963C74.5784 11.4763 74.891 11.7843 75.143 12.1203C75.395 12.447 75.5864 12.7783 75.717 13.1143C75.857 13.441 75.927 13.7397 75.927 14.0103C75.927 14.3557 75.8197 14.743 75.605 15.1723C75.3997 15.6017 75.101 16.0077 74.709 16.3903C74.317 16.773 73.8457 17.0903 73.295 17.3423C72.7444 17.585 72.1237 17.7063 71.433 17.7063ZM72.203 16.0543C72.8097 16.0543 73.3557 15.891 73.841 15.5643C74.3357 15.2283 74.7697 14.701 75.143 13.9823C74.7697 13.2543 74.3357 12.727 73.841 12.4003C73.3464 12.0643 72.8004 11.8963 72.203 11.8963C71.727 11.8963 71.3164 11.985 70.971 12.1623C70.635 12.3303 70.3737 12.573 70.187 12.8903C70.0097 13.1983 69.921 13.5623 69.921 13.9823C69.921 14.393 70.0097 14.757 70.187 15.0743C70.3644 15.3823 70.6257 15.625 70.971 15.8023C71.3164 15.9703 71.727 16.0543 72.203 16.0543ZM86.4116 18.4343L86.0756 15.5223L86.4536 14.4583L86.0756 13.4083L86.4116 10.4683H88.8336L88.3716 14.4583L88.8336 18.4343H86.4116ZM87.0276 14.4583C86.8783 15.2983 86.6029 16.0357 86.2016 16.6703C85.8096 17.2957 85.3103 17.781 84.7036 18.1263C84.1063 18.4717 83.4343 18.6443 82.6876 18.6443C81.9129 18.6443 81.2269 18.4717 80.6296 18.1263C80.0323 17.7717 79.5656 17.2817 79.2296 16.6563C78.9029 16.0217 78.7396 15.289 78.7396 14.4583C78.7396 13.6183 78.9029 12.8857 79.2296 12.2603C79.5656 11.6257 80.0323 11.1357 80.6296 10.7903C81.2269 10.4357 81.9129 10.2583 82.6876 10.2583C83.4343 10.2583 84.1063 10.431 84.7036 10.7763C85.3103 11.1217 85.8143 11.6117 86.2156 12.2463C86.6169 12.8717 86.8876 13.609 87.0276 14.4583ZM81.1056 14.4583C81.1056 14.925 81.1989 15.3357 81.3856 15.6903C81.5816 16.045 81.8476 16.325 82.1836 16.5303C82.5196 16.7263 82.9069 16.8243 83.3456 16.8243C83.7843 16.8243 84.1949 16.7263 84.5776 16.5303C84.9696 16.325 85.3149 16.045 85.6136 15.6903C85.9123 15.3357 86.1456 14.925 86.3136 14.4583C86.1456 13.9917 85.9123 13.581 85.6136 13.2263C85.3149 12.8623 84.9696 12.5823 84.5776 12.3863C84.1949 12.181 83.7843 12.0783 83.3456 12.0783C82.9069 12.0783 82.5196 12.181 82.1836 12.3863C81.8476 12.5823 81.5816 12.8623 81.3856 13.2263C81.1989 13.581 81.1056 13.9917 81.1056 14.4583ZM89.5849 12.2323V11.1963L91.2509 10.6503L92.2449 8.36833H93.5889V10.4683H97.1169V12.2323H93.5889V15.1303C93.5889 15.7463 93.7149 16.1803 93.9669 16.4323C94.2282 16.675 94.6762 16.7963 95.3109 16.7963C95.7122 16.7963 96.0669 16.759 96.3749 16.6843C96.6829 16.6097 96.9769 16.5023 97.2569 16.3623V18.1823C96.9862 18.2943 96.6269 18.397 96.1789 18.4903C95.7309 18.593 95.2689 18.6443 94.7929 18.6443C93.9622 18.6443 93.2856 18.5137 92.7629 18.2523C92.2496 17.9817 91.8669 17.6083 91.6149 17.1323C91.3722 16.6563 91.2509 16.101 91.2509 15.4663V12.2323H89.5849ZM102.739 18.6443C101.796 18.6443 100.951 18.4717 100.205 18.1263C99.4672 17.7717 98.8839 17.277 98.4545 16.6423C98.0345 16.0077 97.8245 15.2703 97.8245 14.4303C97.8245 13.5997 98.0252 12.8717 98.4265 12.2463C98.8372 11.621 99.3972 11.1357 100.107 10.7903C100.816 10.4357 101.623 10.2583 102.529 10.2583C103.453 10.2583 104.246 10.4637 104.909 10.8743C105.571 11.2757 106.08 11.845 106.435 12.5823C106.799 13.3197 106.981 14.1877 106.981 15.1863H99.7005V13.6323H105.721L104.811 14.1923C104.773 13.7257 104.657 13.329 104.461 13.0023C104.274 12.6757 104.017 12.4237 103.691 12.2463C103.364 12.069 102.981 11.9803 102.543 11.9803C102.067 11.9803 101.651 12.0783 101.297 12.2743C100.951 12.461 100.681 12.727 100.485 13.0723C100.298 13.4083 100.205 13.805 100.205 14.2623C100.205 14.813 100.326 15.2843 100.569 15.6763C100.811 16.0683 101.166 16.367 101.633 16.5723C102.099 16.7777 102.664 16.8803 103.327 16.8803C103.924 16.8803 104.526 16.7963 105.133 16.6283C105.739 16.451 106.285 16.2037 106.771 15.8863V17.4543C106.248 17.8277 105.637 18.1217 104.937 18.3363C104.246 18.5417 103.513 18.6443 102.739 18.6443Z" fill="black"/>
</svg>
