<svg width="109" height="26" viewBox="0 0 109 26" fill="none" xmlns="http://www.w3.org/2000/svg">
<path fill-rule="evenodd" clip-rule="evenodd" d="M22.0012 18.3619C22.0012 18.8732 22.0012 19.1288 21.8796 19.3394C21.7581 19.5499 21.5367 19.6778 21.0939 19.9334L11.9079 25.2369C11.4651 25.4926 11.2437 25.6204 11.0006 25.6204C10.7575 25.6204 10.5361 25.4926 10.0933 25.2369L0.907313 19.9334C0.464514 19.6778 0.243114 19.5499 0.121557 19.3394C0 19.1288 0 18.8732 0 18.3619V7.75485C0 7.24355 0 6.9879 0.121557 6.77736C0.243114 6.56681 0.464514 6.43899 0.907314 6.18334L10.0933 0.879813C10.5361 0.624163 10.7575 0.496338 11.0006 0.496338C11.2437 0.496338 11.4651 0.624163 11.9079 0.879814L21.0939 6.18334C21.5367 6.43899 21.7581 6.56681 21.8796 6.77736C22.0012 6.9879 22.0012 7.24355 22.0012 7.75485V18.3619ZM15.5482 6.80895C15.5482 6.03915 15.5482 5.65425 15.7982 5.50991C16.0482 5.36557 16.3816 5.55802 17.0482 5.94292L19.6866 7.46618C19.9306 7.60706 20.0526 7.6775 20.1196 7.79353C20.1866 7.90955 20.1866 8.05043 20.1866 8.3322L20.1866 13.9011C20.1866 14.3725 20.1866 14.6082 20.0401 14.7547C19.8937 14.9011 19.658 14.9011 19.1866 14.9011H16.5482C16.0768 14.9011 15.8411 14.9011 15.6947 14.7547C15.5482 14.6082 15.5482 14.3725 15.5482 13.9011V6.80895ZM12.7336 14.9011C13.205 14.9011 13.4407 14.9011 13.5871 14.7547C13.7336 14.6082 13.7336 14.3725 13.7336 13.9011V4.60657C13.7336 4.32481 13.7336 4.18392 13.6666 4.0679C13.5996 3.95187 13.4776 3.88143 13.2336 3.74055L11.5006 2.74C11.2566 2.59912 11.1346 2.52868 11.0006 2.52868C10.8666 2.52868 10.7446 2.59912 10.5006 2.74L8.68793 3.78655C8.44392 3.92743 8.32191 3.99787 8.25492 4.1139C8.18793 4.22992 8.18793 4.3708 8.18793 4.65257V13.9011C8.18793 14.3725 8.18793 14.6082 8.33438 14.7547C8.48083 14.9011 8.71653 14.9011 9.18793 14.9011H12.7336ZM6.3733 13.9011C6.3733 14.3725 6.3733 14.6082 6.22686 14.7547C6.08041 14.9011 5.84471 14.9011 5.3733 14.9011H2.81463C2.34322 14.9011 2.10752 14.9011 1.96107 14.7547C1.81463 14.6082 1.81463 14.3725 1.81463 13.9011V8.3322C1.81463 8.05043 1.81463 7.90955 1.88162 7.79353C1.9486 7.6775 2.07061 7.60706 2.31463 7.46617L4.8733 5.98892C5.53997 5.60402 5.8733 5.41157 6.1233 5.55591C6.3733 5.70025 6.3733 6.08515 6.3733 6.85495V13.9011Z" fill="#38BDF8"/>
<path d="M30.8832 7.77835H33.2212V18.5583H30.8832V7.77835ZM39.5488 18.7683C38.5595 18.7683 37.6915 18.5957 36.9448 18.2503C36.1981 17.8957 35.6148 17.4057 35.1948 16.7803C34.7748 16.1457 34.5648 15.413 34.5648 14.5823C34.5648 13.7423 34.7748 13.0097 35.1948 12.3843C35.6148 11.7497 36.1981 11.2597 36.9448 10.9143C37.6915 10.5597 38.5595 10.3823 39.5488 10.3823C40.5381 10.3823 41.4061 10.5597 42.1528 10.9143C42.8995 11.2597 43.4781 11.7497 43.8888 12.3843C44.3088 13.0097 44.5188 13.7423 44.5188 14.5823C44.5188 15.413 44.3088 16.1457 43.8888 16.7803C43.4781 17.4057 42.8995 17.8957 42.1528 18.2503C41.4061 18.5957 40.5381 18.7683 39.5488 18.7683ZM39.5488 16.9903C40.0901 16.9903 40.5521 16.8923 40.9348 16.6963C41.3268 16.5003 41.6255 16.225 41.8308 15.8703C42.0455 15.5063 42.1528 15.077 42.1528 14.5823C42.1528 14.0783 42.0455 13.649 41.8308 13.2943C41.6255 12.9303 41.3268 12.6503 40.9348 12.4543C40.5521 12.2583 40.0901 12.1603 39.5488 12.1603C39.0168 12.1603 38.5548 12.2583 38.1628 12.4543C37.7708 12.6503 37.4675 12.9303 37.2528 13.2943C37.0474 13.649 36.9448 14.0783 36.9448 14.5823C36.9448 15.077 37.0474 15.5063 37.2528 15.8703C37.4675 16.225 37.7708 16.5003 38.1628 16.6963C38.5548 16.8923 39.0168 16.9903 39.5488 16.9903ZM50.4453 18.7683C49.4559 18.7683 48.5879 18.5957 47.8413 18.2503C47.0946 17.8957 46.5113 17.4057 46.0913 16.7803C45.6713 16.1457 45.4613 15.413 45.4613 14.5823C45.4613 13.7423 45.6713 13.0097 46.0913 12.3843C46.5113 11.7497 47.0946 11.2597 47.8413 10.9143C48.5879 10.5597 49.4559 10.3823 50.4453 10.3823C51.4346 10.3823 52.3026 10.5597 53.0493 10.9143C53.7959 11.2597 54.3746 11.7497 54.7853 12.3843C55.2053 13.0097 55.4153 13.7423 55.4153 14.5823C55.4153 15.413 55.2053 16.1457 54.7853 16.7803C54.3746 17.4057 53.7959 17.8957 53.0493 18.2503C52.3026 18.5957 51.4346 18.7683 50.4453 18.7683ZM50.4453 16.9903C50.9866 16.9903 51.4486 16.8923 51.8313 16.6963C52.2233 16.5003 52.5219 16.225 52.7273 15.8703C52.9419 15.5063 53.0493 15.077 53.0493 14.5823C53.0493 14.0783 52.9419 13.649 52.7273 13.2943C52.5219 12.9303 52.2233 12.6503 51.8313 12.4543C51.4486 12.2583 50.9866 12.1603 50.4453 12.1603C49.9133 12.1603 49.4513 12.2583 49.0593 12.4543C48.6673 12.6503 48.3639 12.9303 48.1493 13.2943C47.9439 13.649 47.8413 14.0783 47.8413 14.5823C47.8413 15.077 47.9439 15.5063 48.1493 15.8703C48.3639 16.225 48.6673 16.5003 49.0593 16.6963C49.4513 16.8923 49.9133 16.9903 50.4453 16.9903ZM56.7778 10.5923H59.1158V13.1263L59.0178 13.4343V15.3523L59.1158 15.9263V20.8683H56.7778V10.5923ZM58.3038 14.5823C58.4624 13.733 58.7378 12.9957 59.1298 12.3703C59.5311 11.7357 60.0304 11.2457 60.6278 10.9003C61.2344 10.555 61.9064 10.3823 62.6438 10.3823C63.4278 10.3823 64.1138 10.5597 64.7018 10.9143C65.2991 11.2597 65.7658 11.7497 66.1018 12.3843C66.4378 13.0097 66.6058 13.7423 66.6058 14.5823C66.6058 15.413 66.4378 16.1457 66.1018 16.7803C65.7658 17.4057 65.2991 17.8957 64.7018 18.2503C64.1138 18.5957 63.4278 18.7683 62.6438 18.7683C61.8971 18.7683 61.2251 18.5957 60.6278 18.2503C60.0398 17.905 59.5451 17.4197 59.1438 16.7943C58.7424 16.1597 58.4624 15.4223 58.3038 14.5823ZM64.2398 14.5823C64.2398 14.1157 64.1418 13.705 63.9458 13.3503C63.7591 12.9863 63.4978 12.7063 63.1618 12.5103C62.8258 12.305 62.4384 12.2023 61.9998 12.2023C61.5611 12.2023 61.1458 12.305 60.7538 12.5103C60.3618 12.7063 60.0164 12.9863 59.7178 13.3503C59.4284 13.705 59.1998 14.1157 59.0318 14.5823C59.1998 15.049 59.4284 15.4597 59.7178 15.8143C60.0164 16.169 60.3618 16.449 60.7538 16.6543C61.1458 16.8503 61.5611 16.9483 61.9998 16.9483C62.4384 16.9483 62.8258 16.8503 63.1618 16.6543C63.4978 16.449 63.7591 16.169 63.9458 15.8143C64.1418 15.4597 64.2398 15.049 64.2398 14.5823ZM75.059 16.5843V15.1983L75.143 14.9043V13.1683L75.059 12.8743V10.5923H77.397V16.4303C77.397 17.4383 77.173 18.2877 76.725 18.9783C76.2864 19.669 75.675 20.1917 74.891 20.5463C74.107 20.901 73.197 21.0783 72.161 21.0783C71.433 21.0783 70.761 20.985 70.145 20.7983C69.5384 20.6117 68.941 20.327 68.353 19.9443V18.1103C68.9224 18.549 69.515 18.8617 70.131 19.0483C70.7564 19.235 71.3864 19.3283 72.021 19.3283C73.001 19.3283 73.7524 19.0997 74.275 18.6423C74.7977 18.185 75.059 17.499 75.059 16.5843ZM71.433 17.8303C70.6957 17.8303 70.033 17.6763 69.445 17.3683C68.8664 17.0603 68.409 16.6263 68.073 16.0663C67.737 15.5063 67.569 14.853 67.569 14.1063C67.569 13.3597 67.737 12.711 68.073 12.1603C68.409 11.6003 68.8664 11.1663 69.445 10.8583C70.033 10.541 70.6957 10.3823 71.433 10.3823C71.993 10.3823 72.5017 10.471 72.959 10.6483C73.4257 10.8163 73.841 11.0403 74.205 11.3203C74.5784 11.6003 74.891 11.9083 75.143 12.2443C75.395 12.571 75.5864 12.9023 75.717 13.2383C75.857 13.565 75.927 13.8637 75.927 14.1343C75.927 14.4797 75.8197 14.867 75.605 15.2963C75.3997 15.7257 75.101 16.1317 74.709 16.5143C74.317 16.897 73.8457 17.2143 73.295 17.4663C72.7444 17.709 72.1237 17.8303 71.433 17.8303ZM72.203 16.1783C72.8097 16.1783 73.3557 16.015 73.841 15.6883C74.3357 15.3523 74.7697 14.825 75.143 14.1063C74.7697 13.3783 74.3357 12.851 73.841 12.5243C73.3464 12.1883 72.8004 12.0203 72.203 12.0203C71.727 12.0203 71.3164 12.109 70.971 12.2863C70.635 12.4543 70.3737 12.697 70.187 13.0143C70.0097 13.3223 69.921 13.6863 69.921 14.1063C69.921 14.517 70.0097 14.881 70.187 15.1983C70.3644 15.5063 70.6257 15.749 70.971 15.9263C71.3164 16.0943 71.727 16.1783 72.203 16.1783ZM86.4116 18.5583L86.0756 15.6463L86.4536 14.5823L86.0756 13.5323L86.4116 10.5923H88.8336L88.3716 14.5823L88.8336 18.5583H86.4116ZM87.0276 14.5823C86.8783 15.4223 86.6029 16.1597 86.2016 16.7943C85.8096 17.4197 85.3103 17.905 84.7036 18.2503C84.1063 18.5957 83.4343 18.7683 82.6876 18.7683C81.9129 18.7683 81.2269 18.5957 80.6296 18.2503C80.0323 17.8957 79.5656 17.4057 79.2296 16.7803C78.9029 16.1457 78.7396 15.413 78.7396 14.5823C78.7396 13.7423 78.9029 13.0097 79.2296 12.3843C79.5656 11.7497 80.0323 11.2597 80.6296 10.9143C81.2269 10.5597 81.9129 10.3823 82.6876 10.3823C83.4343 10.3823 84.1063 10.555 84.7036 10.9003C85.3103 11.2457 85.8143 11.7357 86.2156 12.3703C86.6169 12.9957 86.8876 13.733 87.0276 14.5823ZM81.1056 14.5823C81.1056 15.049 81.1989 15.4597 81.3856 15.8143C81.5816 16.169 81.8476 16.449 82.1836 16.6543C82.5196 16.8503 82.9069 16.9483 83.3456 16.9483C83.7843 16.9483 84.1949 16.8503 84.5776 16.6543C84.9696 16.449 85.3149 16.169 85.6136 15.8143C85.9123 15.4597 86.1456 15.049 86.3136 14.5823C86.1456 14.1157 85.9123 13.705 85.6136 13.3503C85.3149 12.9863 84.9696 12.7063 84.5776 12.5103C84.1949 12.305 83.7843 12.2023 83.3456 12.2023C82.9069 12.2023 82.5196 12.305 82.1836 12.5103C81.8476 12.7063 81.5816 12.9863 81.3856 13.3503C81.1989 13.705 81.1056 14.1157 81.1056 14.5823ZM89.5849 12.3563V11.3203L91.2509 10.7743L92.2449 8.49235H93.5889V10.5923H97.1169V12.3563H93.5889V15.2543C93.5889 15.8703 93.7149 16.3043 93.9669 16.5563C94.2282 16.799 94.6762 16.9203 95.3109 16.9203C95.7122 16.9203 96.0669 16.883 96.3749 16.8083C96.6829 16.7337 96.9769 16.6263 97.2569 16.4863V18.3063C96.9862 18.4183 96.6269 18.521 96.1789 18.6143C95.7309 18.717 95.2689 18.7683 94.7929 18.7683C93.9622 18.7683 93.2856 18.6377 92.7629 18.3763C92.2496 18.1057 91.8669 17.7323 91.6149 17.2563C91.3722 16.7803 91.2509 16.225 91.2509 15.5903V12.3563H89.5849ZM102.739 18.7683C101.796 18.7683 100.951 18.5957 100.205 18.2503C99.4672 17.8957 98.8839 17.401 98.4545 16.7663C98.0345 16.1317 97.8245 15.3943 97.8245 14.5543C97.8245 13.7237 98.0252 12.9957 98.4265 12.3703C98.8372 11.745 99.3972 11.2597 100.107 10.9143C100.816 10.5597 101.623 10.3823 102.529 10.3823C103.453 10.3823 104.246 10.5877 104.909 10.9983C105.571 11.3997 106.08 11.969 106.435 12.7063C106.799 13.4437 106.981 14.3117 106.981 15.3103H99.7005V13.7563H105.721L104.811 14.3163C104.773 13.8497 104.657 13.453 104.461 13.1263C104.274 12.7997 104.017 12.5477 103.691 12.3703C103.364 12.193 102.981 12.1043 102.543 12.1043C102.067 12.1043 101.651 12.2023 101.297 12.3983C100.951 12.585 100.681 12.851 100.485 13.1963C100.298 13.5323 100.205 13.929 100.205 14.3863C100.205 14.937 100.326 15.4083 100.569 15.8003C100.811 16.1923 101.166 16.491 101.633 16.6963C102.099 16.9017 102.664 17.0043 103.327 17.0043C103.924 17.0043 104.526 16.9203 105.133 16.7523C105.739 16.575 106.285 16.3277 106.771 16.0103V17.5783C106.248 17.9517 105.637 18.2457 104.937 18.4603C104.246 18.6657 103.513 18.7683 102.739 18.7683Z" fill="white"/>
</svg>
