<svg width="109" height="26" viewBox="0 0 109 26" fill="none" xmlns="http://www.w3.org/2000/svg">
<path fill-rule="evenodd" clip-rule="evenodd" d="M22.0012 17.8656C22.0012 18.3769 22.0012 18.6325 21.8796 18.8431C21.7581 19.0536 21.5367 19.1814 21.0939 19.4371L11.9079 24.7406C11.4651 24.9962 11.2437 25.1241 11.0006 25.1241C10.7575 25.1241 10.5361 24.9962 10.0933 24.7406L0.907313 19.4371C0.464514 19.1814 0.243114 19.0536 0.121557 18.8431C0 18.6325 0 18.3769 0 17.8656V7.25851C0 6.74721 0 6.49156 0.121557 6.28102C0.243114 6.07047 0.464514 5.94265 0.907314 5.687L10.0933 0.383476C10.5361 0.127825 10.7575 0 11.0006 0C11.2437 -1.0816e-08 11.4651 0.127825 11.9079 0.383476L21.0939 5.687C21.5367 5.94265 21.7581 6.07047 21.8796 6.28102C22.0012 6.49156 22.0012 6.74721 22.0012 7.25851V17.8656ZM15.5482 6.31261C15.5482 5.54281 15.5482 5.15791 15.7982 5.01357C16.0482 4.86924 16.3816 5.06169 17.0482 5.44659L19.6866 6.96984C19.9306 7.11072 20.0526 7.18116 20.1196 7.29719C20.1866 7.41321 20.1866 7.5541 20.1866 7.83586L20.1866 13.4048C20.1866 13.8762 20.1866 14.1119 20.0401 14.2583C19.8937 14.4048 19.658 14.4048 19.1866 14.4048H16.5482C16.0768 14.4048 15.8411 14.4048 15.6947 14.2583C15.5482 14.1119 15.5482 13.8762 15.5482 13.4048V6.31261ZM12.7336 14.4048C13.205 14.4048 13.4407 14.4048 13.5871 14.2583C13.7336 14.1119 13.7336 13.8762 13.7336 13.4048V4.11024C13.7336 3.82847 13.7336 3.68759 13.6666 3.57156C13.5996 3.45554 13.4776 3.38509 13.2336 3.24421L11.5006 2.24367C11.2566 2.10278 11.1346 2.03234 11.0006 2.03234C10.8666 2.03234 10.7446 2.10278 10.5006 2.24366L8.68793 3.29021C8.44392 3.43109 8.32191 3.50153 8.25492 3.61756C8.18793 3.73358 8.18793 3.87447 8.18793 4.15623V13.4048C8.18793 13.8762 8.18793 14.1119 8.33438 14.2583C8.48083 14.4048 8.71653 14.4048 9.18793 14.4048H12.7336ZM6.3733 13.4048C6.3733 13.8762 6.3733 14.1119 6.22686 14.2583C6.08041 14.4048 5.84471 14.4048 5.3733 14.4048H2.81463C2.34322 14.4048 2.10752 14.4048 1.96107 14.2583C1.81463 14.1119 1.81463 13.8762 1.81463 13.4048V7.83586C1.81463 7.5541 1.81463 7.41321 1.88162 7.29719C1.9486 7.18116 2.07061 7.11072 2.31463 6.96984L4.8733 5.49258C5.53997 5.10768 5.8733 4.91523 6.1233 5.05957C6.3733 5.20391 6.3733 5.58881 6.3733 6.35861V13.4048Z" fill="black"/>
<path d="M30.8832 7.28201H33.2212V18.062H30.8832V7.28201ZM39.5488 18.272C38.5595 18.272 37.6915 18.0993 36.9448 17.754C36.1981 17.3993 35.6148 16.9093 35.1948 16.284C34.7748 15.6493 34.5648 14.9167 34.5648 14.086C34.5648 13.246 34.7748 12.5133 35.1948 11.888C35.6148 11.2533 36.1981 10.7633 36.9448 10.418C37.6915 10.0633 38.5595 9.88601 39.5488 9.88601C40.5381 9.88601 41.4061 10.0633 42.1528 10.418C42.8995 10.7633 43.4781 11.2533 43.8888 11.888C44.3088 12.5133 44.5188 13.246 44.5188 14.086C44.5188 14.9167 44.3088 15.6493 43.8888 16.284C43.4781 16.9093 42.8995 17.3993 42.1528 17.754C41.4061 18.0993 40.5381 18.272 39.5488 18.272ZM39.5488 16.494C40.0901 16.494 40.5521 16.396 40.9348 16.2C41.3268 16.004 41.6255 15.7287 41.8308 15.374C42.0455 15.01 42.1528 14.5807 42.1528 14.086C42.1528 13.582 42.0455 13.1527 41.8308 12.798C41.6255 12.434 41.3268 12.154 40.9348 11.958C40.5521 11.762 40.0901 11.664 39.5488 11.664C39.0168 11.664 38.5548 11.762 38.1628 11.958C37.7708 12.154 37.4675 12.434 37.2528 12.798C37.0474 13.1527 36.9448 13.582 36.9448 14.086C36.9448 14.5807 37.0474 15.01 37.2528 15.374C37.4675 15.7287 37.7708 16.004 38.1628 16.2C38.5548 16.396 39.0168 16.494 39.5488 16.494ZM50.4453 18.272C49.4559 18.272 48.5879 18.0993 47.8413 17.754C47.0946 17.3993 46.5113 16.9093 46.0913 16.284C45.6713 15.6493 45.4613 14.9167 45.4613 14.086C45.4613 13.246 45.6713 12.5133 46.0913 11.888C46.5113 11.2533 47.0946 10.7633 47.8413 10.418C48.5879 10.0633 49.4559 9.88601 50.4453 9.88601C51.4346 9.88601 52.3026 10.0633 53.0493 10.418C53.7959 10.7633 54.3746 11.2533 54.7853 11.888C55.2053 12.5133 55.4153 13.246 55.4153 14.086C55.4153 14.9167 55.2053 15.6493 54.7853 16.284C54.3746 16.9093 53.7959 17.3993 53.0493 17.754C52.3026 18.0993 51.4346 18.272 50.4453 18.272ZM50.4453 16.494C50.9866 16.494 51.4486 16.396 51.8313 16.2C52.2233 16.004 52.5219 15.7287 52.7273 15.374C52.9419 15.01 53.0493 14.5807 53.0493 14.086C53.0493 13.582 52.9419 13.1527 52.7273 12.798C52.5219 12.434 52.2233 12.154 51.8313 11.958C51.4486 11.762 50.9866 11.664 50.4453 11.664C49.9133 11.664 49.4513 11.762 49.0593 11.958C48.6673 12.154 48.3639 12.434 48.1493 12.798C47.9439 13.1527 47.8413 13.582 47.8413 14.086C47.8413 14.5807 47.9439 15.01 48.1493 15.374C48.3639 15.7287 48.6673 16.004 49.0593 16.2C49.4513 16.396 49.9133 16.494 50.4453 16.494ZM56.7778 10.096H59.1158V12.63L59.0178 12.938V14.856L59.1158 15.43V20.372H56.7778V10.096ZM58.3038 14.086C58.4624 13.2367 58.7378 12.4993 59.1298 11.874C59.5311 11.2393 60.0304 10.7493 60.6278 10.404C61.2344 10.0587 61.9064 9.88601 62.6438 9.88601C63.4278 9.88601 64.1138 10.0633 64.7018 10.418C65.2991 10.7633 65.7658 11.2533 66.1018 11.888C66.4378 12.5133 66.6058 13.246 66.6058 14.086C66.6058 14.9167 66.4378 15.6493 66.1018 16.284C65.7658 16.9093 65.2991 17.3993 64.7018 17.754C64.1138 18.0993 63.4278 18.272 62.6438 18.272C61.8971 18.272 61.2251 18.0993 60.6278 17.754C60.0398 17.4087 59.5451 16.9233 59.1438 16.298C58.7424 15.6633 58.4624 14.926 58.3038 14.086ZM64.2398 14.086C64.2398 13.6193 64.1418 13.2087 63.9458 12.854C63.7591 12.49 63.4978 12.21 63.1618 12.014C62.8258 11.8087 62.4384 11.706 61.9998 11.706C61.5611 11.706 61.1458 11.8087 60.7538 12.014C60.3618 12.21 60.0164 12.49 59.7178 12.854C59.4284 13.2087 59.1998 13.6193 59.0318 14.086C59.1998 14.5527 59.4284 14.9633 59.7178 15.318C60.0164 15.6727 60.3618 15.9527 60.7538 16.158C61.1458 16.354 61.5611 16.452 61.9998 16.452C62.4384 16.452 62.8258 16.354 63.1618 16.158C63.4978 15.9527 63.7591 15.6727 63.9458 15.318C64.1418 14.9633 64.2398 14.5527 64.2398 14.086ZM75.059 16.088V14.702L75.143 14.408V12.672L75.059 12.378V10.096H77.397V15.934C77.397 16.942 77.173 17.7913 76.725 18.482C76.2864 19.1727 75.675 19.6953 74.891 20.05C74.107 20.4047 73.197 20.582 72.161 20.582C71.433 20.582 70.761 20.4887 70.145 20.302C69.5384 20.1153 68.941 19.8307 68.353 19.448V17.614C68.9224 18.0527 69.515 18.3653 70.131 18.552C70.7564 18.7387 71.3864 18.832 72.021 18.832C73.001 18.832 73.7524 18.6033 74.275 18.146C74.7977 17.6887 75.059 17.0027 75.059 16.088ZM71.433 17.334C70.6957 17.334 70.033 17.18 69.445 16.872C68.8664 16.564 68.409 16.13 68.073 15.57C67.737 15.01 67.569 14.3567 67.569 13.61C67.569 12.8633 67.737 12.2147 68.073 11.664C68.409 11.104 68.8664 10.67 69.445 10.362C70.033 10.0447 70.6957 9.88601 71.433 9.88601C71.993 9.88601 72.5017 9.97468 72.959 10.152C73.4257 10.32 73.841 10.544 74.205 10.824C74.5784 11.104 74.891 11.412 75.143 11.748C75.395 12.0747 75.5864 12.406 75.717 12.742C75.857 13.0687 75.927 13.3673 75.927 13.638C75.927 13.9833 75.8197 14.3707 75.605 14.8C75.3997 15.2293 75.101 15.6353 74.709 16.018C74.317 16.4007 73.8457 16.718 73.295 16.97C72.7444 17.2127 72.1237 17.334 71.433 17.334ZM72.203 15.682C72.8097 15.682 73.3557 15.5187 73.841 15.192C74.3357 14.856 74.7697 14.3287 75.143 13.61C74.7697 12.882 74.3357 12.3547 73.841 12.028C73.3464 11.692 72.8004 11.524 72.203 11.524C71.727 11.524 71.3164 11.6127 70.971 11.79C70.635 11.958 70.3737 12.2007 70.187 12.518C70.0097 12.826 69.921 13.19 69.921 13.61C69.921 14.0207 70.0097 14.3847 70.187 14.702C70.3644 15.01 70.6257 15.2527 70.971 15.43C71.3164 15.598 71.727 15.682 72.203 15.682ZM86.4116 18.062L86.0756 15.15L86.4536 14.086L86.0756 13.036L86.4116 10.096H88.8336L88.3716 14.086L88.8336 18.062H86.4116ZM87.0276 14.086C86.8783 14.926 86.6029 15.6633 86.2016 16.298C85.8096 16.9233 85.3103 17.4087 84.7036 17.754C84.1063 18.0993 83.4343 18.272 82.6876 18.272C81.9129 18.272 81.2269 18.0993 80.6296 17.754C80.0323 17.3993 79.5656 16.9093 79.2296 16.284C78.9029 15.6493 78.7396 14.9167 78.7396 14.086C78.7396 13.246 78.9029 12.5133 79.2296 11.888C79.5656 11.2533 80.0323 10.7633 80.6296 10.418C81.2269 10.0633 81.9129 9.88601 82.6876 9.88601C83.4343 9.88601 84.1063 10.0587 84.7036 10.404C85.3103 10.7493 85.8143 11.2393 86.2156 11.874C86.6169 12.4993 86.8876 13.2367 87.0276 14.086ZM81.1056 14.086C81.1056 14.5527 81.1989 14.9633 81.3856 15.318C81.5816 15.6727 81.8476 15.9527 82.1836 16.158C82.5196 16.354 82.9069 16.452 83.3456 16.452C83.7843 16.452 84.1949 16.354 84.5776 16.158C84.9696 15.9527 85.3149 15.6727 85.6136 15.318C85.9123 14.9633 86.1456 14.5527 86.3136 14.086C86.1456 13.6193 85.9123 13.2087 85.6136 12.854C85.3149 12.49 84.9696 12.21 84.5776 12.014C84.1949 11.8087 83.7843 11.706 83.3456 11.706C82.9069 11.706 82.5196 11.8087 82.1836 12.014C81.8476 12.21 81.5816 12.49 81.3856 12.854C81.1989 13.2087 81.1056 13.6193 81.1056 14.086ZM89.5849 11.86V10.824L91.2509 10.278L92.2449 7.99601H93.5889V10.096H97.1169V11.86H93.5889V14.758C93.5889 15.374 93.7149 15.808 93.9669 16.06C94.2282 16.3027 94.6762 16.424 95.3109 16.424C95.7122 16.424 96.0669 16.3867 96.3749 16.312C96.6829 16.2373 96.9769 16.13 97.2569 15.99V17.81C96.9862 17.922 96.6269 18.0247 96.1789 18.118C95.7309 18.2207 95.2689 18.272 94.7929 18.272C93.9622 18.272 93.2856 18.1413 92.7629 17.88C92.2496 17.6093 91.8669 17.236 91.6149 16.76C91.3722 16.284 91.2509 15.7287 91.2509 15.094V11.86H89.5849ZM102.739 18.272C101.796 18.272 100.951 18.0993 100.205 17.754C99.4672 17.3993 98.8839 16.9047 98.4545 16.27C98.0345 15.6353 97.8245 14.898 97.8245 14.058C97.8245 13.2273 98.0252 12.4993 98.4265 11.874C98.8372 11.2487 99.3972 10.7633 100.107 10.418C100.816 10.0633 101.623 9.88601 102.529 9.88601C103.453 9.88601 104.246 10.0913 104.909 10.502C105.571 10.9033 106.08 11.4727 106.435 12.21C106.799 12.9473 106.981 13.8153 106.981 14.814H99.7005V13.26H105.721L104.811 13.82C104.773 13.3533 104.657 12.9567 104.461 12.63C104.274 12.3033 104.017 12.0513 103.691 11.874C103.364 11.6967 102.981 11.608 102.543 11.608C102.067 11.608 101.651 11.706 101.297 11.902C100.951 12.0887 100.681 12.3547 100.485 12.7C100.298 13.036 100.205 13.4327 100.205 13.89C100.205 14.4407 100.326 14.912 100.569 15.304C100.811 15.696 101.166 15.9947 101.633 16.2C102.099 16.4053 102.664 16.508 103.327 16.508C103.924 16.508 104.526 16.424 105.133 16.256C105.739 16.0787 106.285 15.8313 106.771 15.514V17.082C106.248 17.4553 105.637 17.7493 104.937 17.964C104.246 18.1693 103.513 18.272 102.739 18.272Z" fill="black"/>
</svg>
