<svg width="109" height="26" viewBox="0 0 109 26" fill="none" xmlns="http://www.w3.org/2000/svg">
<path fill-rule="evenodd" clip-rule="evenodd" d="M22.0012 18.1136C22.0012 18.6249 22.0012 18.8806 21.8796 19.0911C21.7581 19.3016 21.5367 19.4295 21.0939 19.6851L11.9079 24.9886C11.4651 25.2443 11.2437 25.3721 11.0006 25.3721C10.7575 25.3721 10.5361 25.2443 10.0933 24.9886L0.907313 19.6851C0.464514 19.4295 0.243114 19.3016 0.121557 19.0911C0 18.8806 0 18.6249 0 18.1136V7.50656C0 6.99526 0 6.73961 0.121557 6.52906C0.243114 6.31852 0.464514 6.1907 0.907314 5.93504L10.0933 0.631522C10.5361 0.375872 10.7575 0.248047 11.0006 0.248047C11.2437 0.248047 11.4651 0.375872 11.9079 0.631523L21.0939 5.93505C21.5367 6.1907 21.7581 6.31852 21.8796 6.52906C22.0012 6.73961 22.0012 6.99526 22.0012 7.50656V18.1136ZM15.5482 6.56066C15.5482 5.79086 15.5482 5.40596 15.7982 5.26162C16.0482 5.11728 16.3816 5.30973 17.0482 5.69463L19.6866 7.21788C19.9306 7.35877 20.0526 7.42921 20.1196 7.54523C20.1866 7.66126 20.1866 7.80214 20.1866 8.08391L20.1866 13.6528C20.1866 14.1242 20.1866 14.3599 20.0401 14.5064C19.8937 14.6528 19.658 14.6528 19.1866 14.6528H16.5482C16.0768 14.6528 15.8411 14.6528 15.6947 14.5064C15.5482 14.3599 15.5482 14.1242 15.5482 13.6528V6.56066ZM12.7336 14.6528C13.205 14.6528 13.4407 14.6528 13.5871 14.5064C13.7336 14.3599 13.7336 14.1242 13.7336 13.6528V4.35828C13.7336 4.07652 13.7336 3.93563 13.6666 3.81961C13.5996 3.70358 13.4776 3.63314 13.2336 3.49226L11.5006 2.49171C11.2566 2.35083 11.1346 2.28039 11.0006 2.28039C10.8666 2.28039 10.7446 2.35083 10.5006 2.49171L8.68793 3.53825C8.44392 3.67914 8.32191 3.74958 8.25492 3.8656C8.18793 3.98163 8.18793 4.12251 8.18793 4.40428V13.6528C8.18793 14.1242 8.18793 14.3599 8.33438 14.5064C8.48083 14.6528 8.71653 14.6528 9.18793 14.6528H12.7336ZM6.3733 13.6528C6.3733 14.1242 6.3733 14.3599 6.22686 14.5064C6.08041 14.6528 5.84471 14.6528 5.3733 14.6528H2.81463C2.34322 14.6528 2.10752 14.6528 1.96107 14.5064C1.81463 14.3599 1.81463 14.1242 1.81463 13.6528V8.08391C1.81463 7.80214 1.81463 7.66126 1.88162 7.54523C1.9486 7.42921 2.07061 7.35877 2.31463 7.21788L4.8733 5.74063C5.53997 5.35573 5.8733 5.16328 6.1233 5.30762C6.3733 5.45196 6.3733 5.83686 6.3733 6.60666V13.6528Z" fill="#38BDF8"/>
<path d="M30.8832 7.53006H33.2212V18.3101H30.8832V7.53006ZM39.5488 18.5201C38.5595 18.5201 37.6915 18.3474 36.9448 18.0021C36.1981 17.6474 35.6148 17.1574 35.1948 16.5321C34.7748 15.8974 34.5648 15.1647 34.5648 14.3341C34.5648 13.4941 34.7748 12.7614 35.1948 12.1361C35.6148 11.5014 36.1981 11.0114 36.9448 10.6661C37.6915 10.3114 38.5595 10.1341 39.5488 10.1341C40.5381 10.1341 41.4061 10.3114 42.1528 10.6661C42.8995 11.0114 43.4781 11.5014 43.8888 12.1361C44.3088 12.7614 44.5188 13.4941 44.5188 14.3341C44.5188 15.1647 44.3088 15.8974 43.8888 16.5321C43.4781 17.1574 42.8995 17.6474 42.1528 18.0021C41.4061 18.3474 40.5381 18.5201 39.5488 18.5201ZM39.5488 16.7421C40.0901 16.7421 40.5521 16.6441 40.9348 16.4481C41.3268 16.2521 41.6255 15.9767 41.8308 15.6221C42.0455 15.2581 42.1528 14.8287 42.1528 14.3341C42.1528 13.8301 42.0455 13.4007 41.8308 13.0461C41.6255 12.6821 41.3268 12.4021 40.9348 12.2061C40.5521 12.0101 40.0901 11.9121 39.5488 11.9121C39.0168 11.9121 38.5548 12.0101 38.1628 12.2061C37.7708 12.4021 37.4675 12.6821 37.2528 13.0461C37.0474 13.4007 36.9448 13.8301 36.9448 14.3341C36.9448 14.8287 37.0474 15.2581 37.2528 15.6221C37.4675 15.9767 37.7708 16.2521 38.1628 16.4481C38.5548 16.6441 39.0168 16.7421 39.5488 16.7421ZM50.4453 18.5201C49.4559 18.5201 48.5879 18.3474 47.8413 18.0021C47.0946 17.6474 46.5113 17.1574 46.0913 16.5321C45.6713 15.8974 45.4613 15.1647 45.4613 14.3341C45.4613 13.4941 45.6713 12.7614 46.0913 12.1361C46.5113 11.5014 47.0946 11.0114 47.8413 10.6661C48.5879 10.3114 49.4559 10.1341 50.4453 10.1341C51.4346 10.1341 52.3026 10.3114 53.0493 10.6661C53.7959 11.0114 54.3746 11.5014 54.7853 12.1361C55.2053 12.7614 55.4153 13.4941 55.4153 14.3341C55.4153 15.1647 55.2053 15.8974 54.7853 16.5321C54.3746 17.1574 53.7959 17.6474 53.0493 18.0021C52.3026 18.3474 51.4346 18.5201 50.4453 18.5201ZM50.4453 16.7421C50.9866 16.7421 51.4486 16.6441 51.8313 16.4481C52.2233 16.2521 52.5219 15.9767 52.7273 15.6221C52.9419 15.2581 53.0493 14.8287 53.0493 14.3341C53.0493 13.8301 52.9419 13.4007 52.7273 13.0461C52.5219 12.6821 52.2233 12.4021 51.8313 12.2061C51.4486 12.0101 50.9866 11.9121 50.4453 11.9121C49.9133 11.9121 49.4513 12.0101 49.0593 12.2061C48.6673 12.4021 48.3639 12.6821 48.1493 13.0461C47.9439 13.4007 47.8413 13.8301 47.8413 14.3341C47.8413 14.8287 47.9439 15.2581 48.1493 15.6221C48.3639 15.9767 48.6673 16.2521 49.0593 16.4481C49.4513 16.6441 49.9133 16.7421 50.4453 16.7421ZM56.7778 10.3441H59.1158V12.8781L59.0178 13.1861V15.1041L59.1158 15.6781V20.6201H56.7778V10.3441ZM58.3038 14.3341C58.4624 13.4847 58.7378 12.7474 59.1298 12.1221C59.5311 11.4874 60.0304 10.9974 60.6278 10.6521C61.2344 10.3067 61.9064 10.1341 62.6438 10.1341C63.4278 10.1341 64.1138 10.3114 64.7018 10.6661C65.2991 11.0114 65.7658 11.5014 66.1018 12.1361C66.4378 12.7614 66.6058 13.4941 66.6058 14.3341C66.6058 15.1647 66.4378 15.8974 66.1018 16.5321C65.7658 17.1574 65.2991 17.6474 64.7018 18.0021C64.1138 18.3474 63.4278 18.5201 62.6438 18.5201C61.8971 18.5201 61.2251 18.3474 60.6278 18.0021C60.0398 17.6567 59.5451 17.1714 59.1438 16.5461C58.7424 15.9114 58.4624 15.1741 58.3038 14.3341ZM64.2398 14.3341C64.2398 13.8674 64.1418 13.4567 63.9458 13.1021C63.7591 12.7381 63.4978 12.4581 63.1618 12.2621C62.8258 12.0567 62.4384 11.9541 61.9998 11.9541C61.5611 11.9541 61.1458 12.0567 60.7538 12.2621C60.3618 12.4581 60.0164 12.7381 59.7178 13.1021C59.4284 13.4567 59.1998 13.8674 59.0318 14.3341C59.1998 14.8007 59.4284 15.2114 59.7178 15.5661C60.0164 15.9207 60.3618 16.2007 60.7538 16.4061C61.1458 16.6021 61.5611 16.7001 61.9998 16.7001C62.4384 16.7001 62.8258 16.6021 63.1618 16.4061C63.4978 16.2007 63.7591 15.9207 63.9458 15.5661C64.1418 15.2114 64.2398 14.8007 64.2398 14.3341ZM75.059 16.3361V14.9501L75.143 14.6561V12.9201L75.059 12.6261V10.3441H77.397V16.1821C77.397 17.1901 77.173 18.0394 76.725 18.7301C76.2864 19.4207 75.675 19.9434 74.891 20.2981C74.107 20.6527 73.197 20.8301 72.161 20.8301C71.433 20.8301 70.761 20.7367 70.145 20.5501C69.5384 20.3634 68.941 20.0787 68.353 19.6961V17.8621C68.9224 18.3007 69.515 18.6134 70.131 18.8001C70.7564 18.9867 71.3864 19.0801 72.021 19.0801C73.001 19.0801 73.7524 18.8514 74.275 18.3941C74.7977 17.9367 75.059 17.2507 75.059 16.3361ZM71.433 17.5821C70.6957 17.5821 70.033 17.4281 69.445 17.1201C68.8664 16.8121 68.409 16.3781 68.073 15.8181C67.737 15.2581 67.569 14.6047 67.569 13.8581C67.569 13.1114 67.737 12.4627 68.073 11.9121C68.409 11.3521 68.8664 10.9181 69.445 10.6101C70.033 10.2927 70.6957 10.1341 71.433 10.1341C71.993 10.1341 72.5017 10.2227 72.959 10.4001C73.4257 10.5681 73.841 10.7921 74.205 11.0721C74.5784 11.3521 74.891 11.6601 75.143 11.9961C75.395 12.3227 75.5864 12.6541 75.717 12.9901C75.857 13.3167 75.927 13.6154 75.927 13.8861C75.927 14.2314 75.8197 14.6187 75.605 15.0481C75.3997 15.4774 75.101 15.8834 74.709 16.2661C74.317 16.6487 73.8457 16.9661 73.295 17.2181C72.7444 17.4607 72.1237 17.5821 71.433 17.5821ZM72.203 15.9301C72.8097 15.9301 73.3557 15.7667 73.841 15.4401C74.3357 15.1041 74.7697 14.5767 75.143 13.8581C74.7697 13.1301 74.3357 12.6027 73.841 12.2761C73.3464 11.9401 72.8004 11.7721 72.203 11.7721C71.727 11.7721 71.3164 11.8607 70.971 12.0381C70.635 12.2061 70.3737 12.4487 70.187 12.7661C70.0097 13.0741 69.921 13.4381 69.921 13.8581C69.921 14.2687 70.0097 14.6327 70.187 14.9501C70.3644 15.2581 70.6257 15.5007 70.971 15.6781C71.3164 15.8461 71.727 15.9301 72.203 15.9301ZM86.4116 18.3101L86.0756 15.3981L86.4536 14.3341L86.0756 13.2841L86.4116 10.3441H88.8336L88.3716 14.3341L88.8336 18.3101H86.4116ZM87.0276 14.3341C86.8783 15.1741 86.6029 15.9114 86.2016 16.5461C85.8096 17.1714 85.3103 17.6567 84.7036 18.0021C84.1063 18.3474 83.4343 18.5201 82.6876 18.5201C81.9129 18.5201 81.2269 18.3474 80.6296 18.0021C80.0323 17.6474 79.5656 17.1574 79.2296 16.5321C78.9029 15.8974 78.7396 15.1647 78.7396 14.3341C78.7396 13.4941 78.9029 12.7614 79.2296 12.1361C79.5656 11.5014 80.0323 11.0114 80.6296 10.6661C81.2269 10.3114 81.9129 10.1341 82.6876 10.1341C83.4343 10.1341 84.1063 10.3067 84.7036 10.6521C85.3103 10.9974 85.8143 11.4874 86.2156 12.1221C86.6169 12.7474 86.8876 13.4847 87.0276 14.3341ZM81.1056 14.3341C81.1056 14.8007 81.1989 15.2114 81.3856 15.5661C81.5816 15.9207 81.8476 16.2007 82.1836 16.4061C82.5196 16.6021 82.9069 16.7001 83.3456 16.7001C83.7843 16.7001 84.1949 16.6021 84.5776 16.4061C84.9696 16.2007 85.3149 15.9207 85.6136 15.5661C85.9123 15.2114 86.1456 14.8007 86.3136 14.3341C86.1456 13.8674 85.9123 13.4567 85.6136 13.1021C85.3149 12.7381 84.9696 12.4581 84.5776 12.2621C84.1949 12.0567 83.7843 11.9541 83.3456 11.9541C82.9069 11.9541 82.5196 12.0567 82.1836 12.2621C81.8476 12.4581 81.5816 12.7381 81.3856 13.1021C81.1989 13.4567 81.1056 13.8674 81.1056 14.3341ZM89.5849 12.1081V11.0721L91.2509 10.5261L92.2449 8.24406H93.5889V10.3441H97.1169V12.1081H93.5889V15.0061C93.5889 15.6221 93.7149 16.0561 93.9669 16.3081C94.2282 16.5507 94.6762 16.6721 95.3109 16.6721C95.7122 16.6721 96.0669 16.6347 96.3749 16.5601C96.6829 16.4854 96.9769 16.3781 97.2569 16.2381V18.0581C96.9862 18.1701 96.6269 18.2727 96.1789 18.3661C95.7309 18.4687 95.2689 18.5201 94.7929 18.5201C93.9622 18.5201 93.2856 18.3894 92.7629 18.1281C92.2496 17.8574 91.8669 17.4841 91.6149 17.0081C91.3722 16.5321 91.2509 15.9767 91.2509 15.3421V12.1081H89.5849ZM102.739 18.5201C101.796 18.5201 100.951 18.3474 100.205 18.0021C99.4672 17.6474 98.8839 17.1527 98.4545 16.5181C98.0345 15.8834 97.8245 15.1461 97.8245 14.3061C97.8245 13.4754 98.0252 12.7474 98.4265 12.1221C98.8372 11.4967 99.3972 11.0114 100.107 10.6661C100.816 10.3114 101.623 10.1341 102.529 10.1341C103.453 10.1341 104.246 10.3394 104.909 10.7501C105.571 11.1514 106.08 11.7207 106.435 12.4581C106.799 13.1954 106.981 14.0634 106.981 15.0621H99.7005V13.5081H105.721L104.811 14.0681C104.773 13.6014 104.657 13.2047 104.461 12.8781C104.274 12.5514 104.017 12.2994 103.691 12.1221C103.364 11.9447 102.981 11.8561 102.543 11.8561C102.067 11.8561 101.651 11.9541 101.297 12.1501C100.951 12.3367 100.681 12.6027 100.485 12.9481C100.298 13.2841 100.205 13.6807 100.205 14.1381C100.205 14.6887 100.326 15.1601 100.569 15.5521C100.811 15.9441 101.166 16.2427 101.633 16.4481C102.099 16.6534 102.664 16.7561 103.327 16.7561C103.924 16.7561 104.526 16.6721 105.133 16.5041C105.739 16.3267 106.285 16.0794 106.771 15.7621V17.3301C106.248 17.7034 105.637 17.9974 104.937 18.2121C104.246 18.4174 103.513 18.5201 102.739 18.5201Z" fill="#38BDF8"/>
</svg>
